{
  "accessors": [
    {
      "bufferView": 2,
      "componentType": 5126,
      "count": 3567,
      "max": [
        1.0479179620742798,
        1.1191717386245728,
        2.35507869720459
      ],
      "min": [
        -1.0479179620742798,
        -1.1191717386245728,
        -1.551653504371643
      ],
      "type": "VEC3"
    },
    {
      "bufferView": 2,
      "byteOffset": 42804,
      "componentType": 5126,
      "count": 3567,
      "max": [
        1.0,
        1.0,
        1.0
      ],
      "min": [
        -1.0,
        -1.0,
        -1.0
      ],
      "type": "VEC3"
    },
    {
      "bufferView": 1,
      "componentType": 5126,
      "count": 3567,
      "max": [
        1.0,
        1.0
      ],
      "min": [
        0.0,
        0.0
      ],
      "type": "VEC2"
    },
    {
      "bufferView": 0,
      "componentType": 5125,
      "count": 7722,
      "type": "SCALAR"
    },
    {
      "bufferView": 2,
      "byteOffset": 85608,
      "componentType": 5126,
      "count": 1984,
      "max": [
        1.0002423524856567,
        0.11246111989021301,
        0.11177787184715271
      ],
      "min": [
        0.9255772829055786,
        0.03556524217128754,
        0.03488199785351753
      ],
      "type": "VEC3"
    },
    {
      "bufferView": 2,
      "byteOffset": 109416,
      "componentType": 5126,
      "count": 1984,
      "max": [
        0.9909750819206238,
        0.9901527762413025,
        0.9951364398002625
      ],
      "min": [
        -0.9909785389900208,
        -0.990152895450592,
        -0.9951359629631042
      ],
      "type": "VEC3"
    },
    {
      "bufferView": 1,
      "byteOffset": 28536,
      "componentType": 5126,
      "count": 1984,
      "max": [
        1.000000238418579,
        1.0
      ],
      "min": [
        0.0,
        0.0
      ],
      "type": "VEC2"
    },
    {
      "bufferView": 0,
      "byteOffset": 30888,
      "componentType": 5125,
      "count": 2880,
      "type": "SCALAR"
    },
    {
      "bufferView": 2,
      "byteOffset": 133224,
      "componentType": 5126,
      "count": 32,
      "max": [
        0.8386936783790588,
        0.902360200881958,
        1.3460434675216675
      ],
      "min": [
        -0.8386936783790588,
        -0.902360200881958,
        0.7824896574020386
      ],
      "type": "VEC3"
    },
    {
      "bufferView": 2,
      "byteOffset": 133608,
      "componentType": 5126,
      "count": 32,
      "max": [
        1.0,
        1.0,
        0.0
      ],
      "min": [
        -1.0,
        -1.0,
        0.0
      ],
      "type": "VEC3"
    },
    {
      "bufferView": 1,
      "byteOffset": 44408,
      "componentType": 5126,
      "count": 32,
      "max": [
        0.621406078338623,
        0.9546248912811279
      ],
      "min": [
        0.6019231081008911,
        0.051261648535728455
      ],
      "type": "VEC2"
    },
    {
      "bufferView": 0,
      "byteOffset": 42408,
      "componentType": 5125,
      "count": 48,
      "type": "SCALAR"
    },
    {
      "bufferView": 2,
      "byteOffset": 133992,
      "componentType": 5126,
      "count": 128,
      "max": [
        0.08452609926462173,
        0.07121198624372482,
        2.244163751602173
      ],
      "min": [
        -0.06767096370458603,
        -0.08098507672548294,
        2.091966390609741
      ],
      "type": "VEC3"
    },
    {
      "bufferView": 2,
      "byteOffset": 135528,
      "componentType": 5126,
      "count": 128,
      "max": [
        0.9951847791671753,
        0.9951848983764648,
        0.0
      ],
      "min": [
        -0.9951848983764648,
        -0.9951848387718201,
        0.0
      ],
      "type": "VEC3"
    },
    {
      "bufferView": 1,
      "byteOffset": 44664,
      "componentType": 5126,
      "count": 128,
      "max": [
        1.0,
        1.0
      ],
      "min": [
        0.0,
        0.5
      ],
      "type": "VEC2"
    },
    {
      "bufferView": 0,
      "byteOffset": 42600,
      "componentType": 5125,
      "count": 192,
      "type": "SCALAR"
    },
    {
      "bufferView": 2,
      "byteOffset": 137064,
      "componentType": 5126,
      "count": 24,
      "max": [
        1.0,
        1.0,
        0.019604802131652832
      ],
      "min": [
        -1.0,
        -1.0,
        0.0
      ],
      "type": "VEC3"
    },
    {
      "bufferView": 2,
      "byteOffset": 137352,
      "componentType": 5126,
      "count": 24,
      "max": [
        1.0,
        1.0,
        1.0
      ],
      "min": [
        -1.0,
        -1.0,
        -1.0
      ],
      "type": "VEC3"
    },
    {
      "bufferView": 1,
      "byteOffset": 45688,
      "componentType": 5126,
      "count": 24,
      "max": [
        1.0,
        1.0
      ],
      "min": [
        0.0,
        0.0
      ],
      "type": "VEC2"
    },
    {
      "bufferView": 0,
      "byteOffset": 43368,
      "componentType": 5125,
      "count": 36,
      "type": "SCALAR"
    },
    {
      "bufferView": 2,
      "byteOffset": 137640,
      "componentType": 5126,
      "count": 24,
      "max": [
        1.0,
        1.0,
        0.019604802131652832
      ],
      "min": [
        -1.0,
        -1.0,
        0.0
      ],
      "type": "VEC3"
    },
    {
      "bufferView": 2,
      "byteOffset": 137928,
      "componentType": 5126,
      "count": 24,
      "max": [
        1.0,
        1.0,
        1.0
      ],
      "min": [
        -1.0,
        -1.0,
        -1.0
      ],
      "type": "VEC3"
    },
    {
      "bufferView": 1,
      "byteOffset": 45880,
      "componentType": 5126,
      "count": 24,
      "max": [
        1.0,
        1.0
      ],
      "min": [
        0.0,
        0.0
      ],
      "type": "VEC2"
    },
    {
      "bufferView": 0,
      "byteOffset": 43512,
      "componentType": 5125,
      "count": 36,
      "type": "SCALAR"
    },
    {
      "bufferView": 2,
      "byteOffset": 138216,
      "componentType": 5126,
      "count": 24,
      "max": [
        1.0,
        1.0,
        0.019604802131652832
      ],
      "min": [
        -1.0,
        -1.0,
        0.0
      ],
      "type": "VEC3"
    },
    {
      "bufferView": 2,
      "byteOffset": 138504,
      "componentType": 5126,
      "count": 24,
      "max": [
        1.0,
        1.0,
        1.0
      ],
      "min": [
        -1.0,
        -1.0,
        -1.0
      ],
      "type": "VEC3"
    },
    {
      "bufferView": 1,
      "byteOffset": 46072,
      "componentType": 5126,
      "count": 24,
      "max": [
        1.0,
        1.0
      ],
      "min": [
        0.0,
        0.0
      ],
      "type": "VEC2"
    },
    {
      "bufferView": 0,
      "byteOffset": 43656,
      "componentType": 5125,
      "count": 36,
      "type": "SCALAR"
    },
    {
      "bufferView": 2,
      "byteOffset": 138792,
      "componentType": 5126,
      "count": 24,
      "max": [
        1.0,
        1.0,
        0.019604802131652832
      ],
      "min": [
        -1.0,
        -1.0,
        0.0
      ],
      "type": "VEC3"
    },
    {
      "bufferView": 2,
      "byteOffset": 139080,
      "componentType": 5126,
      "count": 24,
      "max": [
        1.0,
        1.0,
        1.0
      ],
      "min": [
        -1.0,
        -1.0,
        -1.0
      ],
      "type": "VEC3"
    },
    {
      "bufferView": 1,
      "byteOffset": 46264,
      "componentType": 5126,
      "count": 24,
      "max": [
        1.0,
        1.0
      ],
      "min": [
        0.0,
        0.0
      ],
      "type": "VEC2"
    },
    {
      "bufferView": 0,
      "byteOffset": 43800,
      "componentType": 5125,
      "count": 36,
      "type": "SCALAR"
    }
  ],
  "asset": {
    "extras": {
      "author": "Gaborka001 (https://sketchfab.com/Gaborka001)",
      "license": "CC-BY-4.0 (http://creativecommons.org/licenses/by/4.0/)",
      "source": "https://sketchfab.com/3d-models/tardis-a6a0bb2c3653419ea6d7e1632ca0de12",
      "title": "Tardis"
    },
    "generator": "Sketchfab-12.66.0",
    "version": "2.0"
  },
  "bufferViews": [
    {
      "buffer": 0,
      "byteLength": 43944,
      "name": "floatBufferViews",
      "target": 34963
    },
    {
      "buffer": 0,
      "byteLength": 46456,
      "byteOffset": 43944,
      "byteStride": 8,
      "name": "floatBufferViews",
      "target": 34962
    },
    {
      "buffer": 0,
      "byteLength": 139368,
      "byteOffset": 90400,
      "byteStride": 12,
      "name": "floatBufferViews",
      "target": 34962
    }
  ],
  "buffers": [
    {
      "byteLength": 229768,
      "uri": "scene.bin"
    }
  ],
  "materials": [
    {
      "doubleSided": true,
      "name": "Basic",
      "pbrMetallicRoughness": {
        "baseColorFactor": [
          0.0,
          0.0,
          0.8,
          1.0
        ],
        "metallicFactor": 0.0,
        "roughnessFactor": 0.9870844714
      }
    },
    {
      "doubleSided": true,
      "name": "Knob",
      "pbrMetallicRoughness": {
        "baseColorFactor": [
          0.8,
          0.58015,
          0.106039,
          1.0
        ],
        "metallicFactor": 0.0,
        "roughnessFactor": 0.8674773527
      }
    },
    {
      "doubleSided": true,
      "name": "Window",
      "pbrMetallicRoughness": {
        "baseColorFactor": [
          0.8,
          0.8,
          0.8,
          1.0
        ],
        "metallicFactor": 0.0,
        "roughnessFactor": 0.8040408206
      }
    },
    {
      "doubleSided": true,
      "emissiveFactor": [
        1.0,
        1.0,
        0.0
      ],
      "name": "Lantern",
      "pbrMetallicRoughness": {
        "baseColorFactor": [
          0.8,
          0.8,
          0.8,
          1.0
        ],
        "metallicFactor": 0.0,
        "roughnessFactor": 0.8040408206
      }
    },
    {
      "doubleSided": true,
      "name": "Marker",
      "pbrMetallicRoughness": {
        "baseColorFactor": [
          0.0,
          0.0,
          0.0,
          1.0
        ],
        "metallicFactor": 0.0
      }
    }
  ],
  "meshes": [
    {
      "name": "Cube_Basic_0",
      "primitives": [
        {
          "attributes": {
            "NORMAL": 1,
            "POSITION": 0,
            "TEXCOORD_0": 2
          },
          "indices": 3,
          "material": 0,
          "mode": 4
        }
      ]
    },
    {
      "name": "Cube_Knob_0",
      "primitives": [
        {
          "attributes": {
            "NORMAL": 5,
            "POSITION": 4,
            "TEXCOORD_0": 6
          },
          "indices": 7,
          "material": 1,
          "mode": 4
        }
      ]
    },
    {
      "name": "Cube_Window_0",
      "primitives": [
        {
          "attributes": {
            "NORMAL": 9,
            "POSITION": 8,
            "TEXCOORD_0": 10
          },
          "indices": 11,
          "material": 2,
          "mode": 4
        }
      ]
    },
    {
      "name": "Cube_Lantern_0",
      "primitives": [
        {
          "attributes": {
            "NORMAL": 13,
            "POSITION": 12,
            "TEXCOORD_0": 14
          },
          "indices": 15,
          "material": 3,
          "mode": 4
        }
      ]
    },
    {
      "name": "Plane.001_Marker_0",
      "primitives": [
        {
          "attributes": {
            "NORMAL": 17,
            "POSITION": 16,
            "TEXCOORD_0": 18
          },
          "indices": 19,
          "material": 4,
          "mode": 4
        }
      ]
    },
    {
      "name": "Plane.002_Marker_0",
      "primitives": [
        {
          "attributes": {
            "NORMAL": 21,
            "POSITION": 20,
            "TEXCOORD_0": 22
          },
          "indices": 23,
          "material": 4,
          "mode": 4
        }
      ]
    },
    {
      "name": "Plane.003_Marker_0",
      "primitives": [
        {
          "attributes": {
            "NORMAL": 25,
            "POSITION": 24,
            "TEXCOORD_0": 26
          },
          "indices": 27,
          "material": 4,
          "mode": 4
        }
      ]
    },
    {
      "name": "Plane.004_Marker_0",
      "primitives": [
        {
          "attributes": {
            "NORMAL": 29,
            "POSITION": 28,
            "TEXCOORD_0": 30
          },
          "indices": 31,
          "material": 4,
          "mode": 4
        }
      ]
    }
  ],
  "nodes": [
    {
      "children": [
        1
      ],
      "matrix": [
        1.0,
        0.0,
        0.0,
        0.0,
        0.0,
        2.220446049250313e-16,
        -1.0,
        0.0,
        0.0,
        1.0,
        2.220446049250313e-16,
        0.0,
        0.0,
        0.0,
        0.0,
        1.0
      ],
      "name": "Sketchfab_model"
    },
    {
      "children": [
        2
      ],
      "matrix": [
        1.0,
        0.0,
        0.0,
        0.0,
        0.0,
        0.0,
        1.0,
        0.0,
        0.0,
        -1.0,
        0.0,
        0.0,
        0.0,
        0.0,
        0.0,
        1.0
      ],
      "name": "1bcb0e2101f141a1bc0903ce2638b30d.fbx"
    },
    {
      "children": [
        3,
        8,
        10,
        12,
        14,
        16,
        19,
        22,
        25,
        28,
        31,
        34
      ],
      "name": "RootNode"
    },
    {
      "children": [
        4,
        5,
        6,
        7
      ],
      "matrix": [
        200.0,
        0.0,
        0.0,
        0.0,
        -0.0,
        -3.258413587836628e-05,
        -199.99999999999736,
        0.0,
        0.0,
        199.99999999999736,
        -3.258413587836628e-05,
        0.0,
        -1.7998076677322388,
        310.0,
        0.0,
        1.0
      ],
      "name": "Cube"
    },
    {
      "mesh": 0,
      "name": "Cube_Basic_0"
    },
    {
      "mesh": 1,
      "name": "Cube_Knob_0"
    },
    {
      "mesh": 2,
      "name": "Cube_Window_0"
    },
    {
      "mesh": 3,
      "name": "Cube_Lantern_0"
    },
    {
      "children": [
        9
      ],
      "matrix": [
        1.1596544062486322e-06,
        -15.360088348388631,
        0.0,
        0.0,
        1.1720779334554865e-05,
        8.61790802294312e-13,
        -155.24642944335895,
        0.0,
        99.99999999999945,
        7.549789954319763e-06,
        7.549789948768648e-06,
        0.0,
        191.06556701660156,
        638.9927978515625,
        0.662422776222229,
        1.0
      ],
      "name": "Plane.001"
    },
    {
      "mesh": 4,
      "name": "Plane.001_Marker_0"
    },
    {
      "children": [
        11
      ],
      "matrix": [
        1.1596544062486322e-06,
        -15.360088348388631,
        0.0,
        0.0,
        1.1720779334554865e-05,
        8.61790802294312e-13,
        -155.24642944335895,
        0.0,
        99.99999999999945,
        7.549789954319763e-06,
        7.549789948768648e-06,
        0.0,
        -196.73333740234375,
        638.9927978515625,
        0.662422776222229,
        1.0
      ],
      "name": "Plane.002"
    },
    {
      "mesh": 5,
      "name": "Plane.002_Marker_0"
    },
    {
      "children": [
        13
      ],
      "matrix": [
        3.1503371210042983e-06,
        -16.179870605468444,
        -6.232243022481431e-14,
        0.0,
        157.28411865234034,
        3.062434858826659e-05,
        -1.1874620860416714e-05,
        0.0,
        7.5497901264042576e-06,
        1.084813439767591e-12,
        99.99999999999972,
        0.0,
        1.667022705078125,
        638.1176147460938,
        -207.90664672851563,
        1.0
      ],
      "name": "Plane.003"
    },
    {
      "mesh": 6,
      "name": "Plane.003_Marker_0"
    },
    {
      "children": [
        15
      ],
      "matrix": [
        3.1503371210042983e-06,
        -16.179870605468444,
        -6.232243022481431e-14,
        0.0,
        157.28411865234034,
        3.062434858826659e-05,
        -1.1874620860416714e-05,
        0.0,
        7.5497901264042576e-06,
        1.084813439767591e-12,
        99.99999999999972,
        0.0,
        1.667022705078125,
        638.1176147460938,
        205.66241455078125,
        1.0
      ],
      "name": "Plane.004"
    },
    {
      "mesh": 7,
      "name": "Plane.004_Marker_0"
    },
    {
      "children": [
        17
      ],
      "matrix": [
        353.29388427734375,
        0.0,
        0.0,
        0.0,
        0.0,
        353.2938842773427,
        -2.6672946792361235e-05,
        0.0,
        0.0,
        2.6672946792361235e-05,
        353.2938842773427,
        0.0,
        -1.7998076677322388,
        905.21142578125,
        -5.804109573364258,
        1.0
      ],
      "name": "Area"
    },
    {
      "children": [
        18
      ],
      "matrix": [
        1.0,
        0.0,
        0.0,
        0.0,
        0.0,
        2.220446049250313e-16,
        1.0,
        0.0,
        0.0,
        -1.0,
        2.220446049250313e-16,
        0.0,
        0.0,
        0.0,
        0.0,
        1.0
      ],
      "name": "Object_17"
    },
    {
      "name": "Object_18"
    },
    {
      "children": [
        20
      ],
      "matrix": [
        353.29388427734375,
        0.0,
        0.0,
        0.0,
        0.0,
        305.9614551540723,
        -176.6469830701213,
        0.0,
        0.0,
        176.6469830701213,
        305.9614551540723,
        0.0,
        -1.7998076677322388,
        805.21142578125,
        -235.3107452392578,
        1.0
      ],
      "name": "Area.001"
    },
    {
      "children": [
        21
      ],
      "matrix": [
        1.0,
        0.0,
        0.0,
        0.0,
        0.0,
        2.220446049250313e-16,
        1.0,
        0.0,
        0.0,
        -1.0,
        2.220446049250313e-16,
        0.0,
        0.0,
        0.0,
        0.0,
        1.0
      ],
      "name": "Object_20"
    },
    {
      "name": "Object_21"
    },
    {
      "children": [
        23
      ],
      "matrix": [
        149.30848168027217,
        -7.41416940270896e-06,
        320.19298238110235,
        0.0,
        160.09654348008266,
        305.9614472042036,
        -74.6542581385182,
        0.0,
        -277.2952266661563,
        176.64699683969283,
        129.3049281483723,
        0.0,
        398.2001647949219,
        805.21142578125,
        -335.31072998046875,
        1.0
      ],
      "name": "Area.002"
    },
    {
      "children": [
        24
      ],
      "matrix": [
        1.0,
        0.0,
        0.0,
        0.0,
        0.0,
        2.220446049250313e-16,
        1.0,
        0.0,
        0.0,
        -1.0,
        2.220446049250313e-16,
        0.0,
        0.0,
        0.0,
        0.0,
        1.0
      ],
      "name": "Object_23"
    },
    {
      "name": "Object_24"
    },
    {
      "children": [
        26
      ],
      "matrix": [
        353.2938842773357,
        5.3345892372835685e-05,
        -5.3345898605330356e-05,
        -0.0,
        6.575269363166387e-06,
        227.09288528738534,
        270.63889536238486,
        -0.0,
        -7.515540546983502e-05,
        270.6388719845538,
        -227.09286567106378,
        -0.0,
        -1.7998218536376953,
        705.21142578125,
        364.68927001953125,
        1.0
      ],
      "name": "Area.003"
    },
    {
      "children": [
        27
      ],
      "matrix": [
        1.0,
        0.0,
        0.0,
        0.0,
        0.0,
        2.220446049250313e-16,
        1.0,
        0.0,
        0.0,
        -1.0,
        2.220446049250313e-16,
        0.0,
        0.0,
        0.0,
        0.0,
        1.0
      ],
      "name": "Object_26"
    },
    {
      "name": "Object_27"
    },
    {
      "children": [
        29
      ],
      "matrix": [
        353.29388427734375,
        0.0,
        0.0,
        0.0,
        0.0,
        270.63887190005005,
        227.09291324871816,
        0.0,
        0.0,
        -227.09291324871816,
        270.63887190005005,
        0.0,
        -1.7998076677322388,
        938.162353515625,
        294.1958923339844,
        1.0
      ],
      "name": "Area.004"
    },
    {
      "children": [
        30
      ],
      "matrix": [
        1.0,
        0.0,
        0.0,
        0.0,
        0.0,
        2.220446049250313e-16,
        1.0,
        0.0,
        0.0,
        -1.0,
        2.220446049250313e-16,
        0.0,
        0.0,
        0.0,
        0.0,
        1.0
      ],
      "name": "Object_29"
    },
    {
      "name": "Object_30"
    },
    {
      "children": [
        32
      ],
      "matrix": [
        2.6672946164785238e-05,
        0.0,
        -353.2938842773427,
        0.0,
        -341.2557067748377,
        91.43911231731471,
        -2.5764089080395454e-05,
        0.0,
        91.43911231731445,
        341.2557067748387,
        6.903460893376264e-06,
        0.0,
        -501.7997741699219,
        605.21142578125,
        -35.31074523925781,
        1.0
      ],
      "name": "Area.005"
    },
    {
      "children": [
        33
      ],
      "matrix": [
        1.0,
        0.0,
        0.0,
        0.0,
        0.0,
        2.220446049250313e-16,
        1.0,
        0.0,
        0.0,
        -1.0,
        2.220446049250313e-16,
        0.0,
        0.0,
        0.0,
        0.0,
        1.0
      ],
      "name": "Object_32"
    },
    {
      "name": "Object_33"
    },
    {
      "children": [
        35
      ],
      "matrix": [
        -67.91642192412431,
        -31.646400741516416,
        -66.2258631739268,
        0.0,
        -22.657610523471345,
        94.86045182322924,
        -22.093604623498752,
        0.0,
        69.81398368801916,
        1.24094121214946e-05,
        -71.59614292410478,
        0.0,
        1672.88134765625,
        1139.2801513671875,
        1687.1978759765625,
        1.0
      ],
      "name": "Camera"
    },
    {
      "name": "Object_35"
    }
  ],
  "scene": 0,
  "scenes": [
    {
      "name": "Sketchfab_Scene",
      "nodes": [
        0
      ]
    }
  ]
}
